<?xml version="1.0" encoding="UTF-8"?>
<svg id="Layer_1" xmlns="http://www.w3.org/2000/svg" version="1.1" viewBox="0 0 835.46 466.16">
  <!-- Generator: Adobe Illustrator 30.3.0, SVG Export Plug-In . SVG Version: 2.1.3 Build 182)  -->
  <defs>
    <style>
      .st0 {
        fill: #25346e;
      }

      .st1 {
        isolation: isolate;
      }

      .st2 {
        fill: #fff;
      }

      .st3 {
        fill: none;
        stroke: #010101;
        stroke-miterlimit: 10;
        stroke-width: 2px;
      }

      .st4 {
        fill: #0f0f0f;
      }

      .st5 {
        fill: #c0b4a8;
      }
    </style>
  </defs>
  <g class="st1">
    <g class="st1">
      <g class="st1">
        <path class="st4" d="M20.7,406.76c2.69-4.68,6.35-8.36,10.98-11.05,4.64-2.68,9.86-4.03,15.67-4.03s11.03,1.34,15.67,4.03c4.64,2.69,8.3,6.37,10.98,11.05,2.69,4.68,4.03,10.05,4.03,16.12s-1.34,11.33-4.03,16.06c-2.69,4.72-6.35,8.43-10.98,11.11-4.64,2.69-9.86,4.03-15.67,4.03s-11.03-1.34-15.67-4.03c-4.64-2.68-8.3-6.39-10.98-11.11-2.69-4.72-4.03-10.08-4.03-16.06s1.34-11.44,4.03-16.12ZM26.68,435.75c2.08,3.73,4.92,6.65,8.52,8.78,3.6,2.12,7.65,3.18,12.15,3.18s8.56-1.06,12.15-3.18c3.6-2.12,6.44-5.05,8.52-8.78,2.08-3.72,3.12-8.01,3.12-12.87s-1.04-9.03-3.12-12.8c-2.08-3.77-4.92-6.71-8.52-8.84-3.6-2.12-7.65-3.19-12.15-3.19s-8.56,1.06-12.15,3.19c-3.6,2.12-6.44,5.05-8.52,8.78-2.08,3.73-3.12,8.02-3.12,12.87s1.04,9.15,3.12,12.87Z"/>
        <path class="st4" d="M183.33,407.41h40.43c0,6.16-.95,12.03-2.86,17.62-1.91,5.59-4.72,10.55-8.45,14.88-3.73,4.33-8.23,7.76-13.52,10.27-5.29,2.51-11.27,3.77-17.94,3.77s-12.5-1.15-18-3.45c-5.5-2.29-10.31-5.52-14.43-9.68-4.12-4.16-7.3-9.1-9.55-14.82-2.25-5.72-3.38-11.96-3.38-18.72s1.12-13,3.38-18.72c2.25-5.72,5.44-10.66,9.55-14.82,4.12-4.16,8.93-7.39,14.43-9.68,5.5-2.3,11.5-3.45,18-3.45,5.63,0,10.77.78,15.41,2.34,4.64,1.56,8.77,3.79,12.42,6.7,3.64,2.9,6.76,6.39,9.36,10.46l-5.2,4.55c-3.03-5.03-7.28-9.1-12.74-12.22s-11.88-4.68-19.24-4.68-13.52,1.69-19.24,5.07c-5.72,3.38-10.25,8.02-13.58,13.91-3.34,5.89-5.01,12.74-5.01,20.54s1.67,14.54,5.01,20.47c3.33,5.94,7.84,10.6,13.52,13.98,5.68,3.38,12.11,5.07,19.3,5.07,5.11,0,9.71-.87,13.78-2.6,4.07-1.73,7.6-4.12,10.59-7.15,2.99-3.03,5.4-6.5,7.22-10.4,1.82-3.9,2.95-8.06,3.38-12.48h-32.63v-6.76Z"/>
        <path class="st4" d="M295,361.78v91h-7.15v-91h7.15ZM291.62,361.78h45.11v6.76h-45.11v-6.76ZM291.62,399.48h42.51v6.76h-42.51v-6.76ZM291.62,446.02h45.11v6.76h-45.11v-6.76Z"/>
        <path class="st4" d="M410.12,436.92c2.12,3.12,4.75,5.61,7.87,7.48,3.12,1.86,6.84,2.79,11.18,2.79,5.89,0,10.51-1.62,13.84-4.88,3.34-3.25,5-7.39,5-12.42,0-4.42-1-7.97-2.99-10.66-2-2.69-4.57-4.88-7.74-6.57-3.17-1.69-6.48-3.18-9.95-4.48-2.6-.95-5.31-2.1-8.12-3.45-2.82-1.34-5.44-2.99-7.86-4.94-2.43-1.95-4.4-4.31-5.92-7.08-1.52-2.77-2.28-6.11-2.28-10.01,0-4.33,1.04-8.17,3.12-11.5,2.08-3.33,4.98-5.94,8.71-7.8,3.73-1.86,7.93-2.79,12.61-2.79s9.03.91,12.54,2.73c3.51,1.82,6.43,4.12,8.77,6.89,2.34,2.77,4.12,5.63,5.33,8.58l-6.24,3.51c-.95-2.34-2.32-4.64-4.09-6.89-1.78-2.25-4.01-4.14-6.7-5.66-2.69-1.52-6.02-2.28-10.01-2.28-5.29,0-9.36,1.37-12.22,4.1-2.86,2.73-4.29,6.13-4.29,10.2,0,3.38.82,6.29,2.47,8.71,1.65,2.43,4.12,4.61,7.41,6.56,3.29,1.95,7.37,3.79,12.22,5.53,2.51.95,5.11,2.12,7.8,3.51,2.68,1.39,5.13,3.12,7.34,5.2s4.01,4.57,5.39,7.47c1.39,2.91,2.08,6.35,2.08,10.33,0,3.73-.67,7.11-2.01,10.14-1.34,3.03-3.21,5.65-5.59,7.86-2.38,2.21-5.18,3.9-8.39,5.07-3.21,1.17-6.67,1.75-10.4,1.75-5.29,0-9.92-1.08-13.91-3.25-3.99-2.17-7.32-5.07-10.01-8.71-2.69-3.64-4.77-7.58-6.24-11.83l5.85-3.64c1.47,3.81,3.27,7.28,5.4,10.4Z"/>
      </g>
    </g>
    <g class="st1">
      <g class="st1">
        <path class="st4" d="M507.81,361.78h54.99v6.76h-23.92v84.24h-7.15v-84.24h-23.92v-6.76Z"/>
      </g>
    </g>
    <g class="st1">
      <g class="st1">
        <path class="st4" d="M613.5,388.76c2.25-5.67,5.42-10.62,9.49-14.82,4.07-4.2,8.86-7.48,14.37-9.82,5.5-2.34,11.5-3.51,18-3.51s12.5,1.17,18,3.51c5.5,2.34,10.29,5.61,14.37,9.82,4.07,4.2,7.24,9.14,9.49,14.82,2.25,5.68,3.38,11.85,3.38,18.53s-1.13,12.85-3.38,18.53c-2.25,5.68-5.42,10.62-9.49,14.82-4.08,4.21-8.86,7.48-14.37,9.82-5.5,2.34-11.5,3.51-18,3.51s-12.5-1.17-18-3.51c-5.5-2.34-10.29-5.61-14.37-9.82-4.08-4.2-7.24-9.14-9.49-14.82-2.25-5.68-3.38-11.85-3.38-18.53s1.12-12.85,3.38-18.53ZM622.54,427.56c3.25,5.98,7.71,10.68,13.39,14.1,5.68,3.42,12.16,5.13,19.44,5.13s13.76-1.71,19.43-5.13c5.68-3.42,10.12-8.12,13.33-14.1,3.21-5.98,4.81-12.74,4.81-20.28s-1.6-14.41-4.81-20.34c-3.21-5.94-7.65-10.62-13.33-14.04-5.68-3.42-12.15-5.13-19.43-5.13s-13.76,1.71-19.44,5.13c-5.68,3.42-10.14,8.1-13.39,14.04-3.25,5.94-4.88,12.72-4.88,20.34s1.62,14.3,4.88,20.28Z"/>
        <path class="st4" d="M771.19,361.78v91h-7.15v-91h7.15ZM767.81,361.78h17.03c5.89,0,11.16,1.04,15.79,3.12,4.64,2.08,8.3,5.07,10.99,8.97,2.69,3.9,4.03,8.67,4.03,14.3s-1.34,10.32-4.03,14.3c-2.69,3.99-6.35,7-10.99,9.03-4.64,2.04-9.9,3.06-15.79,3.06h-17.03v-6.37h17.03c4.59,0,8.69-.76,12.29-2.28,3.59-1.51,6.39-3.77,8.38-6.76,1.99-2.99,2.99-6.65,2.99-10.99s-1.02-7.97-3.05-10.92c-2.04-2.95-4.83-5.2-8.39-6.76-3.55-1.56-7.63-2.34-12.22-2.34h-17.03v-6.37ZM787.44,409.36l31.07,43.42h-8.84l-30.16-43.42h7.93Z"/>
      </g>
    </g>
  </g>
  <rect class="st5" x="-.29" y="1.47" width="295.41" height="308.1"/>
  <rect class="st0" x="289.69" y="1.47" width="275.37" height="308.1"/>
  <rect class="st5" x="476.66" y="1.47" width="295.41" height="308.1"/>
  <rect class="st0" x="539.57" y="1.47" width="295.41" height="308.1"/>
  <g class="st1">
    <g class="st1">
      <g class="st1">
        <path class="st2" d="M85.45,303.27c-14.5-5.52-26.75-13.22-36.76-23.11-10-9.88-17.69-21.07-23.05-33.58-5.37-12.5-8.05-25.43-8.05-38.81h72.21c0,9.89,2.18,18.17,6.53,24.85,4.35,6.69,10.22,11.63,17.62,14.83,7.4,3.2,15.15,4.8,23.27,4.8,8.7,0,16.31-1.31,22.84-3.92,6.53-2.62,11.67-6.83,15.44-12.65,3.77-5.81,5.65-12.93,5.65-21.37,0-6.39-1.31-12.21-3.92-17.44-2.61-5.23-6.6-9.81-11.96-13.74-5.37-3.92-12.11-6.9-20.23-8.94-8.12-2.03-17.69-3.05-28.71-3.05v-37.5c20.01,0,38.35,1.68,55.03,5.01,16.67,3.35,31.25,8.58,43.72,15.7,12.47,7.13,22.04,16.21,28.71,27.25,6.67,11.05,10,24.28,10,39.68,0,17.73-4.79,33.36-14.35,46.87-9.57,13.52-23.2,24.13-40.89,31.83-17.69,7.7-39.01,11.55-63.94,11.55-18.27,0-34.66-2.77-49.15-8.29ZM116.34,123.62c8.41,0,16.02-1.09,22.84-3.27,6.81-2.18,12.76-5.16,17.83-8.94,5.07-3.77,8.92-8.14,11.53-13.08,2.61-4.94,3.92-10.17,3.92-15.7,0-5.81-1.31-11.04-3.92-15.7-2.61-4.65-6.38-8.21-11.31-10.68-4.93-2.47-11.31-3.71-19.14-3.71-11.6,0-21.17,3.35-28.71,10.03-7.54,6.69-11.31,15.41-11.31,26.16H30.64c0-18.02,4.42-34.23,13.27-48.62,8.84-14.39,21.38-25.73,37.63-34.01,16.24-8.29,35.09-12.43,56.55-12.43,22.91,0,42.34,3.78,58.29,11.34,15.95,7.56,28.06,17.73,36.32,30.52,8.27,12.79,12.4,27.03,12.4,42.73,0,17.44-5.73,31.98-17.18,43.6-11.46,11.63-26.9,20.35-46.33,26.16-19.43,5.82-41.18,8.72-65.25,8.72v-33.14Z"/>
        <path class="st2" d="M504.79.66l-98.31,110.32-15.22,6.54c8.12-8.14,15.88-13.37,23.27-15.7,7.4-2.32,16.6-3.49,27.62-3.49s22.55,2.26,33.71,6.76c11.16,4.51,21.31,11.05,30.45,19.62,9.13,8.58,16.38,18.97,21.75,31.18,5.36,12.21,8.05,26.02,8.05,41.42,0,25-5.59,46-16.75,63.01-11.17,17-26.1,29.8-44.8,38.37-18.71,8.57-39.37,12.86-61.99,12.86s-43.72-4.29-62.42-12.86c-18.71-8.57-33.64-21.37-44.81-38.37-11.17-17.01-16.75-38-16.75-63.01,0-16.28,3.41-31.4,10.22-45.35,6.81-13.95,15.15-27.03,25.01-39.24L411.7.66h93.09ZM367.98,224.56c4.49,7.71,10.58,13.67,18.27,17.88,7.68,4.22,16.46,6.32,26.32,6.32s18.19-2.1,25.88-6.32c7.68-4.21,13.77-10.17,18.27-17.88,4.49-7.7,6.74-16.79,6.74-27.25s-2.25-19.19-6.74-27.03c-4.5-7.85-10.59-13.95-18.27-18.31-7.69-4.36-16.31-6.54-25.88-6.54s-18.64,2.18-26.32,6.54c-7.69,4.36-13.78,10.47-18.27,18.31-4.5,7.85-6.74,16.86-6.74,27.03s2.24,19.55,6.74,27.25Z"/>
        <path class="st2" d="M591.13,66.93c10.58-23.55,25.45-41.64,44.59-54.29C654.86,0,676.89-6.32,701.84-6.32S750.05,0,769.05,12.65c18.99,12.65,33.64,30.74,43.94,54.29,10.29,23.55,15.44,51.89,15.44,85.03s-5.15,61.48-15.44,85.03c-10.3,23.55-24.95,41.64-43.94,54.29-19,12.64-41.4,18.97-67.21,18.97s-46.98-6.32-66.12-18.97c-19.14-12.65-34-30.74-44.59-54.29-10.59-23.55-15.88-51.89-15.88-85.03s5.29-61.48,15.88-85.03ZM650.07,190.99c2.61,11.77,6.38,21.8,11.31,30.09,4.93,8.29,10.8,14.68,17.62,19.19,6.81,4.51,14.42,6.76,22.84,6.76s16.02-2.25,22.84-6.76c6.81-4.5,12.68-10.9,17.62-19.19,4.93-8.28,8.7-18.31,11.31-30.09s3.92-24.78,3.92-39.03-1.3-27.25-3.92-39.03-6.38-21.8-11.31-30.09c-4.93-8.28-10.81-14.68-17.62-19.19-6.82-4.5-14.43-6.76-22.84-6.76s-16.03,2.26-22.84,6.76c-6.82,4.51-12.69,10.9-17.62,19.19-4.93,8.29-8.7,18.31-11.31,30.09-2.61,11.77-3.92,24.79-3.92,39.03s1.31,27.25,3.92,39.03Z"/>
      </g>
    </g>
  </g>
  <rect class="st3" x="-.29" y="1.47" width="835.28" height="464.12"/>
</svg>